<svg width="25" height="25" viewBox="0 0 30 30" fill="none" xmlns="http://www.w3.org/2000/svg">
<path d="M15.0005 2.50009C12.0239 2.48886 9.14086 3.54028 6.87027 5.46517C4.59967 7.39006 3.09053 10.0621 2.61436 13.0004C2.13819 15.9388 2.72626 18.9507 4.27275 21.4941C5.81925 24.0376 8.22265 25.9457 11.0505 26.8751C11.6755 26.9751 11.8755 26.5876 11.8755 26.2501V24.1376C8.41304 24.8876 7.67554 22.5001 7.67554 22.5001C7.4421 21.7237 6.93604 21.0579 6.25054 20.6251C5.11304 19.8501 6.33804 19.8751 6.33804 19.8751C6.73042 19.9258 7.10624 20.0646 7.43742 20.2811C7.7686 20.4976 8.04657 20.7861 8.25054 21.1251C8.59777 21.7425 9.17469 22.1978 9.85587 22.3921C10.537 22.5864 11.2674 22.5039 11.888 22.1626C11.945 21.5289 12.2239 20.9357 12.6755 20.4876C10.0005 20.2126 7.02554 19.1376 7.02554 14.3751C6.98939 13.1269 7.43729 11.9131 8.27554 10.9876C7.89497 9.91188 7.93968 8.73142 8.40054 7.68759C8.40054 7.68759 9.45054 7.35009 11.838 8.93759C13.885 8.38731 16.041 8.38731 18.088 8.93759C20.4755 7.32509 21.5255 7.68759 21.5255 7.68759C21.9864 8.73142 22.0311 9.91188 21.6505 10.9876C22.4888 11.9131 22.9367 13.1269 22.9005 14.3751C22.9005 19.1501 19.9755 20.2001 17.188 20.5126C17.4883 20.8144 17.7205 21.1768 17.8693 21.5756C18.018 21.9744 18.0798 22.4004 18.0505 22.8251V26.2501C18.0505 26.5876 18.2505 26.9876 18.888 26.8751C21.7108 25.9473 24.1107 24.0444 25.6575 21.5075C27.2044 18.9705 27.7969 15.9656 27.3289 13.0314C26.861 10.0972 25.3631 7.4256 23.1039 5.4957C20.8446 3.56581 17.9718 2.5038 15.0005 2.50009Z" fill="white"/>
</svg>
