<svg width="25" height="25" viewBox="0 0 31 35" fill="none" xmlns="http://www.w3.org/2000/svg">
<g clip-path="url(#clip0_39_34)">
<path fill-rule="evenodd" clip-rule="evenodd" d="M7.7998 5.25C5.03838 5.25 2.7998 7.48857 2.7998 10.25V25.25C2.7998 28.0114 5.03838 30.25 7.7998 30.25H22.7998C25.5612 30.25 27.7998 28.0114 27.7998 25.25V10.25C27.7998 7.48857 25.5612 5.25 22.7998 5.25H7.7998ZM5.2998 10.25C5.2998 8.86929 6.41909 7.75 7.7998 7.75H22.7998C24.1806 7.75 25.2998 8.86929 25.2998 10.25V25.25C25.2998 26.6308 24.1806 27.75 22.7998 27.75H7.7998C6.41909 27.75 5.2998 26.6308 5.2998 25.25V10.25ZM11.5498 16.5C11.5498 15.8096 10.9902 15.25 10.2998 15.25C9.60945 15.25 9.0498 15.8096 9.0498 16.5V24C9.0498 24.6904 9.60945 25.25 10.2998 25.25C10.9902 25.25 11.5498 24.6904 11.5498 24V16.5ZM12.1748 12.125C12.1748 13.1605 11.3353 14 10.2998 14C9.26427 14 8.4248 13.1605 8.4248 12.125C8.4248 11.0895 9.26427 10.25 10.2998 10.25C11.3353 10.25 12.1748 11.0895 12.1748 12.125ZM15.2998 15.25C15.7242 15.25 16.0992 15.4615 16.3252 15.7849C16.9659 15.4378 17.6793 15.25 18.4248 15.25C21.1241 15.25 22.7998 17.6572 22.7998 19.7142V19.7238V19.7331V19.7426V19.7521V19.7616V19.7712V19.7808V19.7904V19.8V19.8096V19.8194V19.829V19.8387V19.8485V19.8582V19.868V19.8778V19.8876V19.8975V19.9072V19.9172V19.9271V19.937V19.947V19.9569V19.9669V19.9769V19.987V19.997V20.0071V20.0171V20.0273V20.0374V20.0475V20.0577V20.0679V20.0781V20.0882V20.0985V20.1088V20.1191V20.1294V20.1396V20.15V20.1604V20.1706V20.181V20.1915V20.2019V20.2122V20.2227V20.2332V20.2436V20.2541V20.2646V20.2751V20.2857V20.2962V20.3069V20.3174V20.328V20.3386V20.3492V20.3599V20.3705V20.3811V20.3919V20.4025V20.4132V20.424V20.4348V20.4454V20.4563V20.467V20.4778V20.4885V20.4994V20.5101V20.521V20.5317V20.5426V20.5535V20.5644V20.5752V20.5861V20.597V20.608V20.6189V20.6299V20.6407V20.6517V20.6626V20.6736V20.6846V20.6956V20.7066V20.7176V20.7286V20.7396V20.7506V20.7616V20.7727V20.7838V20.7949V20.8059V20.817V20.828V20.8391V20.8503V20.8614V20.8724V20.8835V20.8946V20.9058V20.9169V20.928V20.9391V20.9502V20.9615V20.9726V20.9837V20.9949V21.0061V21.0173V21.0284V21.0396V21.0508V21.062V21.0731V21.0843V21.0955V21.1068V21.1179V21.1291V21.1403V21.1515V21.1628V21.1739V21.1851V21.1962V21.2075V21.2188V21.2299V21.2411V21.2524V21.2635V21.2747V21.286V21.2973V21.3084V21.3196V21.3309V21.342V21.3533V21.3645V21.3756V21.3869V21.398V21.4093V21.4204V21.4316V21.4429V21.454V21.4653V21.4764V21.4875V21.4987V21.5099V21.5211V21.5322V21.5434V21.5545V21.5658V21.5769V21.588V21.5991V21.6102V21.6214V21.6325V21.6436V21.6548V21.6659V21.677V21.688V21.6991V21.7102V21.7213V21.7324V21.7434V21.7545V21.7655V21.7766V21.7876V21.7986V21.8096V21.8206V21.8316V21.8426V21.8536V21.8646V21.8756V21.8865V21.8975V21.9084V21.9194V21.9303V21.9411V21.952V21.9629V21.9737V21.9846V21.9955V22.0064V22.0173V22.028V22.0389V22.0496V22.0604V22.0712V22.082V22.0928V22.1034V22.1141V22.1249V22.1356V22.1462V22.1569V22.1676V22.1782V22.1889V22.1995V22.2101V22.2206V22.2313V22.2418V22.2524V22.2629V22.2734V22.2839V22.2944V22.3049V22.3153V22.3258V22.3361V22.3465V22.3569V22.3673V22.3776V22.388V22.3983V22.4086V22.4189V22.4291V22.4394V22.4496V22.4599V22.47V22.4802V22.4904V22.5005V22.5106V22.5208V22.5308V22.5409V22.5509V22.5609V22.5709V22.5809V22.5909V22.6007V22.6106V22.6206V22.6305V22.6402V22.6501V22.66V22.6698V22.6795V22.6892V22.699V22.7086V22.7184V22.728V22.7376V22.7472V22.7569V22.7664V22.776V22.7855V22.795V22.8044V22.8139V22.8232V22.8326V22.842V22.8514V22.8608V22.87V22.8792V22.8885V22.8978V22.9069V22.9161V22.9252V22.9344V22.9434V22.9525V22.9615V22.9705V22.9795V22.9885V22.9974V23.0063V23.0151V23.024V23.0327V23.0415V23.0503V23.059V23.0677V23.0764V23.085V23.0936V23.1022V23.1108V23.1193V23.1278V23.1362V23.1446V23.153V23.1614V23.1698V23.1781V23.1864V23.1946V23.2027V23.211V23.2191V23.2272V23.2353V23.2434V23.2514V23.2594V23.2673V23.2752V23.2831V23.291V23.2987V23.3065V23.3143V23.322V23.3298V23.3374V23.345V23.3525V23.3601V23.3676V23.375V23.3825V23.3899V23.3972V23.4046V23.4119V23.4191V23.4264V23.4335V23.4406V23.4478V23.4549V23.4619V23.4689V23.4759V23.4827V23.4896V23.4965V23.5033V23.5101V23.5168V23.5235V23.5301V23.5368V23.5434V23.5499V23.5564V23.5629V23.5692V23.5756V23.582V23.5883V23.5945V23.6007V23.6069V23.613V23.6191V23.6251V23.6311V23.6371V23.643V23.6489V23.6548V23.6605V23.6663V23.672V23.6776V23.6832V23.6889V23.6944V23.6999V23.7054V23.7108V23.7161V23.7214V23.7266V23.7319V23.7371V23.7423V23.7472V23.7524V23.7574V23.7622V23.7673V23.7721V23.7769V23.7816V23.7864V23.791V23.7956V23.8003V23.8047V23.8092V23.8137V23.8181V23.8225V23.8268V23.831V23.8353V23.8394V23.8435V23.8475V23.8515V23.8555V23.8594V23.8633V23.867V23.8708V23.8745V23.8781V23.8817V23.8854V23.8889V23.8923V23.8956V23.899V23.9024V23.9056V23.9088V23.9119V23.915V23.918V23.921V23.924V23.9269V23.9298V23.9325V23.9351V23.9379V23.9405V23.943V23.9455V23.948V23.9504V23.9528V23.955V23.9572V23.9595V23.9616V23.9636V23.9656V23.9676V23.9695V23.9714V23.9731V23.9749V23.9766V23.9782V23.9798V23.9813V23.9827V23.9841V23.9855V23.9868V23.9891V23.9912V23.9932V23.9949V23.9964V23.998V23.9995C22.7998 24.6899 22.2402 25.25 21.5498 25.25C20.8594 25.25 20.2998 24.6904 20.2998 24V23.9985V23.997V23.9956V23.9941V23.9922V23.9903V23.988V23.9855V23.9841V23.9827V23.9813V23.9798V23.9782V23.9766V23.9749V23.9731V23.9714V23.9695V23.9676V23.9656V23.9636V23.9616V23.9595V23.9572V23.955V23.9528V23.9504V23.948V23.9455V23.943V23.9405V23.9379V23.9351V23.9325V23.9298V23.9269V23.924V23.921V23.918V23.915V23.9119V23.9088V23.9056V23.9024V23.899V23.8956V23.8923V23.8889V23.8854V23.8817V23.8781V23.8745V23.8708V23.867V23.8633V23.8594V23.8555V23.8515V23.8475V23.8435V23.8394V23.8353V23.831V23.8268V23.8225V23.8181V23.8137V23.8092V23.8047V23.8003V23.7956V23.791V23.7864V23.7816V23.7769V23.7721V23.7673V23.7622V23.7574V23.7524V23.7472V23.7423V23.7371V23.7319V23.7266V23.7214V23.7161V23.7108V23.7054V23.6999V23.6944V23.6889V23.6832V23.6776V23.672V23.6663V23.6605V23.6548V23.6489V23.643V23.6371V23.6311V23.6251V23.6191V23.613V23.6069V23.6007V23.5945V23.5883V23.582V23.5756V23.5692V23.5629V23.5564V23.5499V23.5434V23.5368V23.5301V23.5235V23.5168V23.5101V23.5033V23.4965V23.4896V23.4827V23.4759V23.4689V23.4619V23.4549V23.4478V23.4406V23.4335V23.4264V23.4191V23.4119V23.4046V23.3972V23.3899V23.3825V23.375V23.3676V23.3601V23.3525V23.345V23.3374V23.3298V23.322V23.3143V23.3065V23.2987V23.291V23.2831V23.2752V23.2673V23.2594V23.2514V23.2434V23.2353V23.2272V23.2191V23.211V23.2027V23.1946V23.1864V23.1781V23.1698V23.1614V23.153V23.1446V23.1362V23.1278V23.1193V23.1108V23.1022V23.0936V23.085V23.0764V23.0677V23.059V23.0503V23.0415V23.0327V23.024V23.0151V23.0063V22.9974V22.9885V22.9795V22.9705V22.9615V22.9525V22.9434V22.9344V22.9252V22.9161V22.9069V22.8978V22.8885V22.8792V22.87V22.8608V22.8514V22.842V22.8326V22.8232V22.8139V22.8044V22.795V22.7855V22.776V22.7664V22.7569V22.7472V22.7376V22.728V22.7184V22.7086V22.699V22.6892V22.6795V22.6698V22.66V22.6501V22.6402V22.6305V22.6206V22.6106V22.6007V22.5909V22.5809V22.5709V22.5609V22.5509V22.5409V22.5308V22.5208V22.5106V22.5005V22.4904V22.4802V22.47V22.4599V22.4496V22.4394V22.4291V22.4189V22.4086V22.3983V22.388V22.3776V22.3673V22.3569V22.3465V22.3361V22.3258V22.3153V22.3049V22.2944V22.2839V22.2734V22.2629V22.2524V22.2418V22.2313V22.2206V22.2101V22.1995V22.1889V22.1782V22.1676V22.1569V22.1462V22.1356V22.1249V22.1141V22.1034V22.0928V22.082V22.0712V22.0604V22.0496V22.0389V22.028V22.0173V22.0064V21.9955V21.9846V21.9737V21.9629V21.952V21.9411V21.9303V21.9194V21.9084V21.8975V21.8865V21.8756V21.8646V21.8536V21.8426V21.8316V21.8206V21.8096V21.7986V21.7876V21.7766V21.7655V21.7545V21.7434V21.7324V21.7213V21.7102V21.6991V21.688V21.677V21.6659V21.6548V21.6436V21.6325V21.6214V21.6102V21.5991V21.588V21.5769V21.5658V21.5545V21.5434V21.5322V21.5211V21.5099V21.4987V21.4875V21.4764V21.4653V21.454V21.4429V21.4316V21.4204V21.4093V21.398V21.3869V21.3756V21.3645V21.3533V21.342V21.3309V21.3196V21.3084V21.2973V21.286V21.2747V21.2635V21.2524V21.2411V21.2299V21.2188V21.2075V21.1962V21.1851V21.1739V21.1628V21.1515V21.1403V21.1291V21.1179V21.1068V21.0955V21.0843V21.0731V21.062V21.0508V21.0396V21.0284V21.0173V21.0061V20.9949V20.9837V20.9726V20.9615V20.9502V20.9391V20.928V20.9169V20.9058V20.8946V20.8835V20.8724V20.8614V20.8503V20.8391V20.828V20.817V20.8059V20.7949V20.7838V20.7727V20.7616V20.7506V20.7396V20.7286V20.7176V20.7066V20.6956V20.6846V20.6736V20.6626V20.6517V20.6407V20.6299V20.6189V20.608V20.597V20.5861V20.5752V20.5644V20.5535V20.5426V20.5317V20.521V20.5101V20.4994V20.4885V20.4778V20.467V20.4563V20.4454V20.4348V20.424V20.4132V20.4025V20.3919V20.3811V20.3705V20.3599V20.3492V20.3386V20.328V20.3174V20.3069V20.2962V20.2857V20.2751V20.2646V20.2541V20.2436V20.2332V20.2227V20.2122V20.2019V20.1915V20.181V20.1706V20.1604V20.15V20.1396V20.1294V20.1191V20.1088V20.0985V20.0882V20.0781V20.0679V20.0577V20.0475V20.0374V20.0273V20.0171V20.0071V19.997V19.987V19.9769V19.9669V19.9569V19.947V19.937V19.9271V19.9172V19.9072V19.8975V19.8876V19.8778V19.868V19.8582V19.8485V19.8387V19.829V19.8194V19.8096V19.8V19.7904V19.7808V19.7712V19.7616V19.7521V19.7426V19.7331V19.7238V19.7142C20.2998 18.754 19.4756 17.75 18.4248 17.75C17.7697 17.75 17.0466 18.1061 16.5498 18.9539V18.9573V18.9701V18.983V18.9959V19.0089V19.0217V19.0347V19.0478V19.0609V19.0739V19.0869V19.1V19.1131V19.1262V19.1394V19.1525V19.1657V19.179V19.1921V19.2054V19.2186V19.2319V19.2453V19.2585V19.2719V19.2852V19.2985V19.312V19.3254V19.3387V19.3521V19.3656V19.3791V19.3925V19.406V19.4195V19.433V19.4466V19.4601V19.4737V19.4873V19.5009V19.5145V19.5281V19.5417V19.5554V19.569V19.5828V19.5964V19.6101V19.6237V19.6375V19.6512V19.665V19.6788V19.6925V19.7062V19.7201V19.7339V19.7476V19.7615V19.7754V19.7891V19.803V19.8169V19.8308V19.8446V19.8585V19.8724V19.8862V19.9002V19.9141V19.928V19.942V19.9559V19.9699V19.9839V19.9977V20.0117V20.0257V20.0398V20.0536V20.0676V20.0816V20.0956V20.1098V20.1238V20.1378V20.1518V20.1658V20.1798V20.1939V20.2079V20.2219V20.236V20.25V20.2641V20.2781V20.2922V20.3062V20.3202V20.3344V20.3485V20.3625V20.3766V20.3906V20.4048V20.4188V20.4329V20.447V20.461V20.4751V20.4891V20.5032V20.5174V20.5314V20.5455V20.5595V20.5736V20.5876V20.6017V20.6157V20.6299V20.6439V20.658V20.672V20.6861V20.7001V20.7142V20.7282V20.7422V20.7562V20.7704V20.7844V20.7984V20.8124V20.8264V20.8404V20.8544V20.8684V20.8824V20.8964V20.9104V20.9244V20.9382V20.9522V20.9662V20.9801V20.9941V21.008V21.022V21.0359V21.0498V21.0636V21.0775V21.0915V21.1054V21.1191V21.133V21.1469V21.1607V21.1745V21.1884V21.2021V21.216V21.2297V21.2435V21.2572V21.271V21.2847V21.2985V21.3123V21.3259V21.3396V21.3533V21.367V21.3806V21.3942V21.4079V21.4215V21.4351V21.4486V21.4622V21.4757V21.4894V21.5029V21.5164V21.5299V21.5434V21.5569V21.5702V21.5837V21.5971V21.6105V21.6239V21.6373V21.6506V21.664V21.6774V21.6906V21.7039V21.7171V21.7304V21.7436V21.7569V21.7701V21.7832V21.7964V21.8095V21.8226V21.8358V21.8489V21.8619V21.8749V21.888V21.901V21.9139V21.9269V21.9399V21.9527V21.9656V21.9785V21.9914V22.0041V22.017V22.0298V22.0425V22.0553V22.068V22.0806V22.0934V22.106V22.1186V22.1311V22.1438V22.1562V22.1688V22.1812V22.1938V22.2062V22.2186V22.231V22.2434V22.2558V22.268V22.2804V22.2926V22.3049V22.317V22.3293V22.3414V22.3535V22.3656V22.3776V22.3897V22.4018V22.4137V22.4256V22.4376V22.4495V22.4614V22.4732V22.485V22.4967V22.5085V22.5203V22.532V22.5436V22.5553V22.5667V22.5784V22.5899V22.6014V22.6129V22.6243V22.6357V22.6471V22.6584V22.6698V22.681V22.6922V22.7034V22.7146V22.7257V22.7369V22.7479V22.7589V22.7699V22.7809V22.7917V22.8026V22.8135V22.8244V22.8351V22.8459V22.8566V22.8672V22.8779V22.8885V22.8991V22.9096V22.9201V22.9305V22.9409V22.9512V22.9616V22.972V22.9823V22.9924V23.0026V23.0127V23.0229V23.0329V23.0429V23.0529V23.0629V23.0728V23.0826V23.0924V23.1021V23.1119V23.1216V23.1313V23.1409V23.1504V23.16V23.1695V23.1789V23.1882V23.1976V23.207V23.2162V23.2254V23.2346V23.2438V23.2529V23.2619V23.2709V23.2799V23.2887V23.2976V23.3064V23.3153V23.3239V23.3326V23.3412V23.3499V23.3584V23.3669V23.3752V23.3838V23.3921V23.4004V23.4086V23.4169V23.425V23.4331V23.4411V23.4491V23.4571V23.4651V23.4729V23.4808V23.4885V23.4963V23.5039V23.5115V23.5191V23.5266V23.534V23.5415V23.5489V23.5561V23.5634V23.5706V23.5778V23.5849V23.5919V23.5989V23.6059V23.6128V23.6195V23.6264V23.633V23.6397V23.6464V23.6529V23.6594V23.6659V23.6723V23.6786V23.6849V23.6911V23.6972V23.7034V23.7095V23.7155V23.7215V23.7274V23.7331V23.739V23.7446V23.7504V23.756V23.7615V23.767V23.7724V23.7778V23.7831V23.7884V23.7935V23.7988V23.8038V23.8088V23.8137V23.8186V23.8235V23.8283V23.833V23.8376V23.8423V23.8467V23.8512V23.8556V23.86V23.8643V23.8685V23.8726V23.8767V23.8808V23.8848V23.8886V23.8925V23.8962V23.9V23.9036V23.9072V23.9108V23.9141V23.9176V23.9209V23.9241V23.9274V23.9305V23.9335V23.9365V23.9395V23.9424V23.9451V23.9479V23.9505V23.9531V23.9556V23.9581V23.9605V23.9629V23.9651V23.9673V23.9694V23.9714V23.9734V23.9754V23.9771V23.9789V23.9806V23.9823V23.9839V23.9854V23.9868V23.9881V23.9894V23.9918V23.9938V23.9955V23.997V23.9986V23.9999C16.5498 24.6903 15.9902 25.25 15.2998 25.25C14.6094 25.25 14.0498 24.6904 14.0498 24V23.9986V23.997V23.9955V23.9938V23.9918V23.9894V23.9881V23.9868V23.9854V23.9839V23.9823V23.9806V23.9789V23.9771V23.9754V23.9734V23.9714V23.9694V23.9673V23.9651V23.9629V23.9605V23.9581V23.9556V23.9531V23.9505V23.9479V23.9451V23.9424V23.9395V23.9365V23.9335V23.9305V23.9274V23.9241V23.9209V23.9176V23.9141V23.9108V23.9072V23.9036V23.9V23.8962V23.8925V23.8886V23.8848V23.8808V23.8767V23.8726V23.8685V23.8643V23.86V23.8556V23.8512V23.8467V23.8423V23.8376V23.833V23.8283V23.8235V23.8186V23.8137V23.8088V23.8038V23.7988V23.7935V23.7884V23.7831V23.7778V23.7724V23.767V23.7615V23.756V23.7504V23.7446V23.739V23.7331V23.7274V23.7215V23.7155V23.7095V23.7034V23.6972V23.6911V23.6849V23.6786V23.6723V23.6659V23.6594V23.6529V23.6464V23.6397V23.633V23.6264V23.6195V23.6128V23.6059V23.5989V23.5919V23.5849V23.5778V23.5706V23.5634V23.5561V23.5489V23.5415V23.534V23.5266V23.5191V23.5115V23.5039V23.4963V23.4885V23.4808V23.4729V23.4651V23.4571V23.4491V23.4411V23.4331V23.425V23.4169V23.4086V23.4004V23.3921V23.3838V23.3752V23.3669V23.3584V23.3499V23.3412V23.3326V23.3239V23.3153V23.3064V23.2976V23.2887V23.2799V23.2709V23.2619V23.2529V23.2438V23.2346V23.2254V23.2162V23.207V23.1976V23.1882V23.1789V23.1695V23.16V23.1504V23.1409V23.1313V23.1216V23.1119V23.1021V23.0924V23.0826V23.0728V23.0629V23.0529V23.0429V23.0329V23.0229V23.0127V23.0026V22.9924V22.9823V22.972V22.9616V22.9512V22.9409V22.9305V22.9201V22.9096V22.8991V22.8885V22.8779V22.8672V22.8566V22.8459V22.8351V22.8244V22.8135V22.8026V22.7917V22.7809V22.7699V22.7589V22.7479V22.7369V22.7257V22.7146V22.7034V22.6922V22.681V22.6698V22.6584V22.6471V22.6357V22.6243V22.6129V22.6014V22.5899V22.5784V22.5667V22.5553V22.5436V22.532V22.5203V22.5085V22.4967V22.485V22.4732V22.4614V22.4495V22.4376V22.4256V22.4137V22.4018V22.3897V22.3776V22.3656V22.3535V22.3414V22.3293V22.317V22.3049V22.2926V22.2804V22.268V22.2558V22.2434V22.231V22.2186V22.2062V22.1938V22.1812V22.1688V22.1562V22.1438V22.1311V22.1186V22.106V22.0934V22.0806V22.068V22.0553V22.0425V22.0298V22.017V22.0041V21.9914V21.9785V21.9656V21.9527V21.9399V21.9269V21.9139V21.901V21.888V21.8749V21.8619V21.8489V21.8358V21.8226V21.8095V21.7964V21.7832V21.7701V21.7569V21.7436V21.7304V21.7171V21.7039V21.6906V21.6774V21.664V21.6506V21.6373V21.6239V21.6105V21.5971V21.5837V21.5702V21.5569V21.5434V21.5299V21.5164V21.5029V21.4894V21.4757V21.4622V21.4486V21.4351V21.4215V21.4079V21.3942V21.3806V21.367V21.3533V21.3396V21.3259V21.3123V21.2985V21.2847V21.271V21.2572V21.2435V21.2297V21.216V21.2021V21.1884V21.1745V21.1607V21.1469V21.133V21.1191V21.1054V21.0915V21.0775V21.0636V21.0498V21.0359V21.022V21.008V20.9941V20.9801V20.9662V20.9522V20.9382V20.9244V20.9104V20.8964V20.8824V20.8684V20.8544V20.8404V20.8264V20.8124V20.7984V20.7844V20.7704V20.7562V20.7422V20.7282V20.7142V20.7001V20.6861V20.672V20.658V20.6439V20.6299V20.6157V20.6017V20.5876V20.5736V20.5595V20.5455V20.5314V20.5174V20.5032V20.4891V20.4751V20.461V20.447V20.4329V20.4188V20.4048V20.3906V20.3766V20.3625V20.3485V20.3344V20.3202V20.3062V20.2922V20.2781V20.2641V20.25V20.236V20.2219V20.2079V20.1939V20.1798V20.1658V20.1518V20.1378V20.1238V20.1098V20.0956V20.0816V20.0676V20.0536V20.0398V20.0257V20.0117V19.9977V19.9839V19.9699V19.9559V19.942V19.928V19.9141V19.9002V19.8862V19.8724V19.8585V19.8446V19.8308V19.8169V19.803V19.7891V19.7754V19.7615V19.7476V19.7339V19.7201V19.7062V19.6925V19.6788V19.665V19.6512V19.6375V19.6237V19.6101V19.5964V19.5828V19.569V19.5554V19.5417V19.5281V19.5145V19.5009V19.4873V19.4737V19.4601V19.4466V19.433V19.4195V19.406V19.3925V19.3791V19.3656V19.3521V19.3387V19.3254V19.312V19.2985V19.2852V19.2719V19.2585V19.2453V19.2319V19.2186V19.2054V19.1921V19.179V19.1657V19.1525V19.1394V19.1262V19.1131V19.1V19.0869V19.0739V19.0609V19.0478V19.0347V19.0217V19.0089V18.9959V18.983V18.9701V18.9573V18.9444V18.9315V18.9186V18.9059V18.8931V18.8804V18.8676V18.855V18.8423V18.8296V18.817V18.8044V18.7919V18.7792V18.7668V18.7542V18.7417V18.7292V18.7169V18.7045V18.6921V18.6798V18.6674V18.6551V18.6429V18.638V18.633V18.6281V18.6231V18.6182V18.6133V18.6082V18.6033V18.5983V18.5932V18.5883V18.5833V18.5782V18.5732V18.5681V18.5631V18.558V18.5529V18.5479V18.5428V18.5376V18.5325V18.5274V18.5222V18.5171V18.512V18.5069V18.5016V18.4965V18.4913V18.4861V18.4809V18.4756V18.4705V18.4653V18.46V18.4548V18.4495V18.4443V18.439V18.4338V18.4284V18.4231V18.4179V18.4125V18.4072V18.4019V18.3966V18.3912V18.3859V18.3806V18.3752V18.3699V18.3645V18.3591V18.3538V18.3484V18.343V18.3376V18.3321V18.3267V18.3214V18.316V18.3105V18.3051V18.2996V18.2943V18.2887V18.2833V18.2779V18.2724V18.2669V18.2615V18.256V18.2505V18.245V18.2395V18.234V18.2285V18.223V18.2175V18.212V18.2065V18.2009V18.1954V18.1899V18.1844V18.1788V18.1733V18.1677V18.1621V18.1566V18.151V18.1455V18.1399V18.1344V18.1288V18.1233V18.1176V18.112V18.1065V18.1009V18.0953V18.0898V18.0841V18.0785V18.0729V18.0674V18.0618V18.0561V18.0505V18.0449V18.0392V18.0338V18.0281V18.0225V18.0169V18.0112V18.0056V18V17.9944V17.9888V17.9831V17.9775V17.9719V17.9663V17.9606V17.955V17.9494V17.9437V17.9381V17.9325V17.9269V17.9213V17.9156V17.91V17.9044V17.8988V17.8931V17.8875V17.8819V17.8761V17.8705V17.8649V17.8593V17.8536V17.848V17.8424V17.8368V17.8311V17.8255V17.82V17.8144V17.8088V17.8031V17.7975V17.7919V17.7863V17.7806V17.775V17.7694V17.7639V17.7583V17.7526V17.747V17.7415V17.7359V17.7302V17.7246V17.7191V17.7135V17.7079V17.7024V17.6968V17.6912V17.6856V17.6801V17.6745V17.669V17.6634V17.6579V17.6524V17.6468V17.6413V17.6357V17.6301V17.6246V17.6191V17.6136V17.6081V17.6026V17.5971V17.5916V17.5861V17.5806V17.5751V17.5696V17.5641V17.5588V17.5532V17.5477V17.5423V17.5369V17.5314V17.526V17.5205V17.5151V17.5096V17.5042V17.4989V17.4935V17.488V17.4826V17.4773V17.4719V17.4665V17.4611V17.4557V17.4504V17.4451V17.4397V17.4344V17.4291V17.4237V17.4184V17.4131V17.4079V17.4025V17.3973V17.392V17.3868V17.3815V17.3761V17.3709V17.3658V17.3605V17.3553V17.35V17.3449V17.3396V17.3344V17.3292V17.3241V17.3189V17.3138V17.3086V17.3035V17.2984V17.2932V17.2881V17.283V17.2779V17.2729V17.2677V17.2626V17.2576V17.2526V17.2475V17.2425V17.2375V17.2325V17.2275V17.2225V17.2175V17.2125V17.2076V17.2026V17.1978V17.1927V17.1879V17.183V17.178V17.1731V17.1683V17.1635V17.1586V17.1537V17.1489V17.1441V17.1392V17.1345V17.1298V17.125V17.1202V17.1155V17.1108V17.106V17.1012V17.0966V17.0919V17.0872V17.0826V17.0779V17.0732V17.0686V17.064V17.0595V17.0549V17.0503V17.0457V17.0411V17.0366V17.0321V17.0276V17.0231V17.0186V17.0141V17.0097V17.0052V17.0009V16.9964V16.992V16.9876V16.9832V16.9789V16.9746V16.9702V16.966V16.9616V16.9574V16.9531V16.9489V16.9446V16.9404V16.9361V16.932V16.9278V16.9236V16.9195V16.9154V16.9113V16.9071V16.903V16.899V16.8949V16.8909V16.8869V16.8829V16.8789V16.8749V16.8709V16.867V16.863V16.8591V16.8552V16.8514V16.8475V16.8436V16.8399V16.836V16.8323V16.8285V16.8247V16.821V16.8173V16.8135V16.8099V16.8061V16.8025V16.7989V16.7952V16.7916V16.7881V16.7845V16.781V16.7774V16.7739V16.7704V16.767V16.7635V16.7601V16.7566V16.7532V16.7499V16.7465V16.7431V16.7399V16.7365V16.7332V16.73V16.7268V16.7235V16.7204V16.7171V16.714V16.7109V16.7077V16.7046V16.7015V16.6985V16.6954V16.6924V16.6894V16.6864V16.6834V16.6805V16.6775V16.6746V16.6717V16.6689V16.6661V16.6632V16.6605V16.6576V16.6549V16.6521V16.6495V16.6468V16.6441V16.6415V16.6389V16.6363V16.6336V16.6311V16.6285V16.626V16.6235V16.6211V16.6186V16.6163V16.6137V16.6114V16.6091V16.6067V16.6044V16.6021V16.5999V16.5976V16.5954V16.5933V16.591V16.5889V16.5868V16.5846V16.5826V16.5805V16.5785V16.5765V16.5745V16.5725V16.5706V16.5688V16.5669V16.565V16.5631V16.5612V16.5595V16.5577V16.556V16.5542V16.5526V16.551V16.5492V16.5478V16.5461V16.5445V16.543V16.5415V16.54V16.5385V16.5371V16.5357V16.5344V16.533V16.5316V16.5304V16.529V16.5278V16.5254V16.5231V16.5209V16.5188V16.5168V16.5149V16.5131V16.5114V16.5099V16.5084V16.5065V16.5052V16.5037V16.5025V16.501C14.0498 15.8106 14.6094 15.25 15.2998 15.25Z" fill="white"/>
</g>
<defs>
<clipPath id="clip0_39_34">
<rect width="30" height="30" fill="white" transform="translate(0.549805)"/>
</clipPath>
</defs>
</svg>
